# xmcd CD database file
#
# Track frame offsets:
#	187
#	11305
#	25907
#	40762
#	98412
#	118842
#	130895
#	140290
#	148487
#
# Disc length: 3255 seconds
#
# Revision: 0
# Processed by: cddbd v1.5.1PL2 Copyright (c) Steve Scherf et al.
# Submitted via: CDex 1.51
#
DISCID=740cb509
DTITLE=日本野鳥の会藤本和典 - 野鳥〜ファンタスティックな森
DYEAR=1900
DGENRE=Other
TTITLE0=ファンタスティックな森(1)
TTITLE1=ファンタスティックな森(2)
TTITLE2=ファンタスティックな森(3)
TTITLE3=ファンタスティックな森(4)
TTITLE4=ファンタスティックな森(5)
TTITLE5=ファンタスティックな森(6)
TTITLE6=ファンタスティックな森(7)
TTITLE7=ファンタスティックな森(8)
TTITLE8=ファンタスティックな森(9)
EXTD=
EXTT0=
EXTT1=
EXTT2=
EXTT3=
EXTT4=
EXTT5=
EXTT6=
EXTT7=
EXTT8=
PLAYORDER=
